<?xml version="1.0" standalone="no"?><!DOCTYPE svg PUBLIC "-//W3C//DTD SVG 1.1//EN" "http://www.w3.org/Graphics/SVG/1.1/DTD/svg11.dtd"><svg t="1588941537561" class="icon" viewBox="0 0 1024 1024" version="1.1" xmlns="http://www.w3.org/2000/svg" p-id="2791" xmlns:xlink="http://www.w3.org/1999/xlink" width="200" height="200"><defs><style type="text/css"></style></defs><path d="M902.095238 314.514286V853.333333a97.52381 97.52381 0 0 1-97.523809 97.52381H219.428571a97.52381 97.52381 0 0 1-97.523809-97.52381V170.666667a97.52381 97.52381 0 0 1 97.523809-97.52381h441.295239z" fill="#ED5050" p-id="2792"></path><path d="M660.72381 265.752381V73.142857l241.371428 241.371429h-192.609524a48.761905 48.761905 0 0 1-48.761904-48.761905z" fill="#D43030" p-id="2793"></path><path d="M633.904762 577.828571a309.150476 309.150476 0 0 0-59.489524 6.826667 288.670476 288.670476 0 0 1-59.001905-76.068571c16.335238-52.906667 17.066667-88.990476 4.876191-106.057143a31.451429 31.451429 0 0 0-24.380953-12.434286 30.72 30.72 0 0 0-29.500952 15.36c-17.066667 28.281905 7.558095 84.358095 19.017143 107.032381a673.645714 673.645714 0 0 1-50.224762 117.516191c-91.184762 39.009524-93.866667 62.659048-93.866667 71.19238a27.794286 27.794286 0 0 0 16.091429 24.380953 24.380952 24.380952 0 0 0 14.140952 3.657143c24.380952 0 51.2-26.575238 80.700953-78.506667a658.285714 658.285714 0 0 1 112.64-36.083809 121.904762 121.904762 0 0 0 70.217143 28.525714c16.091429 0 48.761905 0 48.761904-32.426667 0.24381-10.971429-6.339048-31.939048-49.980952-32.914286z m-260.632381 124.342858h-2.925714a73.142857 73.142857 0 0 1 34.133333-27.550477 62.659048 62.659048 0 0 1-31.207619 27.550477z m116.540952-282.575239a5.851429 5.851429 0 0 1 3.900953 0h2.925714a80.944762 80.944762 0 0 1 0 48.761905 76.8 76.8 0 0 1-6.826667-48.761905z m48.761905 183.832381a588.068571 588.068571 0 0 0-64.609524 19.017143v-1.950476h-1.950476c10.48381-20.72381 19.992381-42.666667 28.525714-64.365714v-1.950476a292.571429 292.571429 0 0 0 37.790477 46.323809h-2.681905z m97.52381 12.434286a82.651429 82.651429 0 0 1-28.769524-6.339047 107.032381 107.032381 0 0 1 24.380952-1.950477c18.773333 0 22.674286 4.632381 22.674286 7.558096a40.96 40.96 0 0 1-18.529524 0.731428z" fill="#FFFFFF" p-id="2794"></path></svg>