<?xml version="1.0" standalone="no"?><!DOCTYPE svg PUBLIC "-//W3C//DTD SVG 1.1//EN" "http://www.w3.org/Graphics/SVG/1.1/DTD/svg11.dtd"><svg t="1588941436141" class="icon" viewBox="0 0 1024 1024" version="1.1" xmlns="http://www.w3.org/2000/svg" p-id="1345" xmlns:xlink="http://www.w3.org/1999/xlink" width="200" height="200"><defs><style type="text/css"></style></defs><path d="M902.095238 314.514286V853.333333a97.52381 97.52381 0 0 1-97.523809 97.52381H219.428571a97.52381 97.52381 0 0 1-97.523809-97.52381V170.666667a97.52381 97.52381 0 0 1 97.523809-97.52381h441.295239z" fill="#4997D9" p-id="1346"></path><path d="M571.245714 720.944762h50.956191L707.047619 449.340952h-50.95619l-84.845715 271.60381z" fill="#FFFFFF" p-id="1347"></path><path d="M660.72381 265.752381V73.142857l241.371428 241.371429h-192.609524a48.761905 48.761905 0 0 1-48.761904-48.761905z" fill="#4B80CB" p-id="1348"></path><path d="M622.201905 720.944762h-50.956191l-84.601904-237.470476h50.71238l84.845715 237.470476z" fill="#FFFFFF" p-id="1349"></path><path d="M401.798095 720.944762h50.956191l84.601904-237.470476h-50.71238l-84.845715 237.470476z" fill="#FFFFFF" p-id="1350"></path><path d="M452.754286 720.944762h-50.956191L316.952381 449.340952h50.95619l84.845715 271.60381z" fill="#FFFFFF" p-id="1351"></path></svg>