<?xml version="1.0" standalone="no"?><!DOCTYPE svg PUBLIC "-//W3C//DTD SVG 1.1//EN" "http://www.w3.org/Graphics/SVG/1.1/DTD/svg11.dtd"><svg t="1588941379653" class="icon" viewBox="0 0 1024 1024" version="1.1" xmlns="http://www.w3.org/2000/svg" p-id="1082" xmlns:xlink="http://www.w3.org/1999/xlink" width="200" height="200"><defs><style type="text/css"></style></defs><path d="M902.095238 314.514286V853.333333a97.52381 97.52381 0 0 1-97.523809 97.52381H219.428571a97.52381 97.52381 0 0 1-97.523809-97.52381V170.666667a97.52381 97.52381 0 0 1 97.523809-97.52381h441.295239z" fill="#4EC47F" p-id="1083"></path><path d="M660.72381 265.752381V73.142857l241.371428 241.371429h-192.609524a48.761905 48.761905 0 0 1-48.761904-48.761905z" fill="#3DA869" p-id="1084"></path><path d="M365.81181 476.574476l37.741714-37.766095 254.805333 254.805333-37.741714 37.766096zM365.763048 693.881905l96.719238-96.719238 37.766095 37.741714-96.719238 96.719238zM523.751619 535.771429l96.889905-96.865524 37.766095 37.741714-96.889905 96.889905z" fill="#FFFFFF" p-id="1085"></path></svg>