<?xml version="1.0" standalone="no"?><!DOCTYPE svg PUBLIC "-//W3C//DTD SVG 1.1//EN" "http://www.w3.org/Graphics/SVG/1.1/DTD/svg11.dtd"><svg t="1588941284636" class="icon" viewBox="0 0 1024 1024" version="1.1" xmlns="http://www.w3.org/2000/svg" p-id="952" xmlns:xlink="http://www.w3.org/1999/xlink" width="200" height="200"><defs><style type="text/css"></style></defs><path d="M1024 294.521905v430.567619a61.68381 61.68381 0 0 1-65.584762 56.807619h-682.666667c-44.373333 0-75.824762-37.302857-62.659047-73.142857l108.495238-299.398096H60.220952A56.32 56.32 0 0 1 0 357.180952v-153.6a56.32 56.32 0 0 1 60.220952-51.2h324.022858A62.171429 62.171429 0 0 1 438.857143 180.906667l33.401905 56.807619h487.619047A61.927619 61.927619 0 0 1 1024 294.521905z" fill="#5398DF" p-id="953"></path><path d="M0 294.278095m48.761905 0l926.47619 0q48.761905 0 48.761905 48.761905l0 528.579048q0 48.761905-48.761905 48.761904l-926.47619 0q-48.761905 0-48.761905-48.761904l0-528.579048q0-48.761905 48.761905-48.761905Z" fill="#85BCFF" p-id="954"></path><path d="M512 505.173333m-73.874286 0a73.874286 73.874286 0 1 0 147.748572 0 73.874286 73.874286 0 1 0-147.748572 0Z" fill="#3D89D6" p-id="955"></path><path d="M373.028571 734.841905c0-63.878095 62.171429-115.809524 138.971429-115.809524s138.971429 51.931429 138.971429 115.809524c0 0-8.289524 43.398095-138.971429 43.398095s-138.971429-43.398095-138.971429-43.398095z" fill="#3D89D6" p-id="956"></path></svg>