<?xml version="1.0" standalone="no"?><!DOCTYPE svg PUBLIC "-//W3C//DTD SVG 1.1//EN" "http://www.w3.org/Graphics/SVG/1.1/DTD/svg11.dtd"><svg t="1588941530742" class="icon" viewBox="0 0 1024 1024" version="1.1" xmlns="http://www.w3.org/2000/svg" p-id="2660" xmlns:xlink="http://www.w3.org/1999/xlink" width="200" height="200"><defs><style type="text/css"></style></defs><path d="M897.462857 314.514286V853.333333a97.52381 97.52381 0 0 1-97.523809 97.52381h-585.142858a97.52381 97.52381 0 0 1-97.523809-97.52381V170.666667a97.52381 97.52381 0 0 1 97.523809-97.52381h441.295239z" fill="#85BCFF" p-id="2661"></path><path d="M660.72381 216.990476V73.142857l241.371428 241.371429h-143.847619a97.52381 97.52381 0 0 1-97.523809-97.52381z" fill="#529EE0" p-id="2662"></path><path d="M287.939048 372.784762m48.761904 0l341.333334 0q48.761905 0 48.761904 48.761905l0 278.674285q0 48.761905-48.761904 48.761905l-341.333334 0q-48.761905 0-48.761904-48.761905l0-278.674285q0-48.761905 48.761904-48.761905Z" fill="#FFFFFF" p-id="2663"></path><path d="M404.967619 460.068571m-29.013333 0a29.013333 29.013333 0 1 0 58.026666 0 29.013333 29.013333 0 1 0-58.026666 0Z" fill="#85BCFF" p-id="2664"></path><path d="M487.619048 641.462857L414.47619 585.142857l-83.382857 85.577143v28.525714a19.992381 19.992381 0 0 0 20.72381 19.017143h312.32a20.23619 20.23619 0 0 0 20.967619-19.017143V585.142857l-73.142857-75.824762z" fill="#85BCFF" p-id="2665"></path></svg>