<?xml version="1.0" standalone="no"?><!DOCTYPE svg PUBLIC "-//W3C//DTD SVG 1.1//EN" "http://www.w3.org/Graphics/SVG/1.1/DTD/svg11.dtd"><svg t="1588941417531" class="icon" viewBox="0 0 1024 1024" version="1.1" xmlns="http://www.w3.org/2000/svg" p-id="1213" xmlns:xlink="http://www.w3.org/1999/xlink" width="200" height="200"><defs><style type="text/css"></style></defs><path d="M902.095238 314.514286V853.333333a97.52381 97.52381 0 0 1-97.523809 97.52381H219.428571a97.52381 97.52381 0 0 1-97.523809-97.52381V170.666667a97.52381 97.52381 0 0 1 97.523809-97.52381h441.295239z" fill="#F07661" p-id="1214"></path><path d="M660.72381 265.752381V73.142857l241.371428 241.371429h-192.609524a48.761905 48.761905 0 0 1-48.761904-48.761905z" fill="#CF4E4E" p-id="1215"></path><path d="M523.946667 426.666667A127.024762 127.024762 0 0 0 414.47619 490.300952v125.318096a127.024762 127.024762 0 0 0 109.470477 63.634285 126.293333 126.293333 0 1 0 0-252.586666z m0 202.118095a76.068571 76.068571 0 0 1-75.824762-75.824762 75.337143 75.337143 0 0 1 16.822857-47.542857 75.824762 75.824762 0 1 1 59.001905 123.367619z" fill="#FFFFFF" p-id="1216"></path><path d="M414.47619 426.666667h50.468572V780.190476H414.47619z" fill="#FFFFFF" p-id="1217"></path></svg>